<svg xmlns="http://www.w3.org/2000/svg" viewBox="0 0 512 512">
  <defs>
    <linearGradient id="bg" x1="0%" x2="100%" y1="0%" y2="100%">
      <stop offset="0%" stop-color="#10203b" />
      <stop offset="100%" stop-color="#19386a" />
    </linearGradient>
    <linearGradient id="accent" x1="0%" x2="100%" y1="0%" y2="100%">
      <stop offset="0%" stop-color="#67f0c5" />
      <stop offset="100%" stop-color="#7d8cff" />
    </linearGradient>
  </defs>
  <rect width="512" height="512" rx="112" fill="url(#bg)" />
  <path
    d="M124 144h264c17.673 0 32 14.327 32 32v32H92v-32c0-17.673 14.327-32 32-32Z"
    fill="#f7fbff"
    opacity="0.92"
  />
  <path
    d="M124 240h264c17.673 0 32 14.327 32 32v64c0 17.673-14.327 32-32 32H124c-17.673 0-32-14.327-32-32v-64c0-17.673 14.327-32 32-32Z"
    fill="#f7fbff"
    opacity="0.18"
  />
  <path
    d="M168 181c0-13.255 10.745-24 24-24s24 10.745 24 24v150c0 13.255-10.745 24-24 24s-24-10.745-24-24V181Zm128-24c13.255 0 24 10.745 24 24v150c0 13.255-10.745 24-24 24s-24-10.745-24-24V181c0-13.255 10.745-24 24-24Zm-40 57c13.255 0 24 10.745 24 24v93c0 13.255-10.745 24-24 24s-24-10.745-24-24v-93c0-13.255 10.745-24 24-24Z"
    fill="url(#accent)"
  />
</svg>
